<!DOCTYPE svg PUBLIC "-//W3C//DTD SVG 1.1//EN" "http://www.w3.org/Graphics/SVG/1.1/DTD/svg11.dtd"><svg xmlns:ev="http://www.w3.org/2001/xml-events" xmlns:xlink="http://www.w3.org/1999/xlink" xmlns="http://www.w3.org/2000/svg" xmlns:v="http://schemas.microsoft.com/visio/2003/SVGExtensions/" width="485.91264" height="91.708704" xml:space="preserve" color-interpolation-filters="sRGB" class="st7" version="1.1"> 
 <style type="text/css">
	<![CDATA[
		.st1 {stroke:#000000;stroke-linecap:butt;stroke-width:0.8}
		.st2 {stroke:#000000;stroke-dasharray:0.25,0.5;stroke-linecap:butt;stroke-width:0.25}
		.st3 {fill:#000000;font-family:Arial,Helvetica,sans-serif;font-size:0.666664em}
		.st4 {fill:none;stroke:none;stroke-linecap:round;stroke-linejoin:round;stroke-width:0.0169691}
		.st5 {stroke:#000000;stroke-linecap:butt;stroke-width:0.5}
		.st6 {fill:none;stroke:none;stroke-linecap:butt;stroke-width:0.5}
		.st7 {fill:none;fill-rule:evenodd;font-size:12px;overflow:visible;stroke-linecap:square;stroke-miterlimit:3}
	]]>
	</style> 
 <g> 
  <title>Page-1</title> 
  <g id="shape1-1" transform="translate(363.635,-28.8465) scale(-1,1)"> 
   <title>64-bit register.156</title> 
   <path d="M0 40.44 L362.83 40.44 L362.83 68.78 L0 68.78" class="st1" /> 
  </g> 
  <g id="shape2-4" transform="translate(69.5815,0.25) rotate(90)"> 
   <title>64-bit register.169</title> 
   <path d="M0 68.78 L11.34 68.78" class="st2" /> 
  </g> 
  <g id="shape3-7" transform="translate(363.635,-28.8465)"> 
   <title>64-bit register.157</title> 
   <path d="M0 40.44 L0 68.78" class="st1" /> 
  </g> 
  <g id="shape4-10" transform="translate(80.1701,-28.8465)"> 
   <title>64-bit register.4</title> 
   <path d="M0 40.44 L0 68.78" class="st1" /> 
  </g> 
  <g id="shape5-13" transform="translate(114.936,0.25) rotate(90)"> 
   <title>64-bit register.11</title> 
   <path d="M0 68.78 L11.34 68.78" class="st2" /> 
  </g> 
  <g id="shape6-16" transform="translate(160.29,0.25) rotate(90)"> 
   <title>64-bit register.12</title> 
   <path d="M0 68.78 L11.34 68.78" class="st2" /> 
  </g> 
  <g id="shape7-19" transform="translate(205.644,0.25) rotate(90)"> 
   <title>64-bit register.13</title> 
   <path d="M0 68.78 L11.34 68.78" class="st2" /> 
  </g> 
  <g id="shape8-22" transform="translate(250.999,0.25) rotate(90)"> 
   <title>64-bit register.14</title> 
   <path d="M0 68.78 L11.34 68.78" class="st2" /> 
  </g> 
  <g id="shape9-25" transform="translate(296.353,0.25) rotate(90)"> 
   <title>64-bit register.15</title> 
   <path d="M0 68.78 L11.34 68.78" class="st2" /> 
  </g> 
  <g id="shape10-28" transform="translate(387.062,0.25) rotate(90)"> 
   <title>64-bit register.16</title> 
   <path d="M0 68.78 L11.34 68.78" class="st2" /> 
  </g> 
  <g id="shape11-31" transform="translate(432.416,0.25) rotate(90)"> 
   <title>64-bit register.17</title> 
   <path d="M0 68.78 L11.34 68.78" class="st2" /> 
  </g> 
  <g id="shape12-34" transform="translate(0.8,-57.1929)"> 
   <title>64-bit register.179</title> 
   <desc>
     31 
   </desc> 
   <text x="1.22" y="65.51" class="st3">
     31 
   </text> 
  </g> 
  <g id="shape13-36" transform="translate(352.296,-57.1929)"> 
   <title>64-bit register.19</title> 
   <desc>
     0 
   </desc> 
   <text x="3.44" y="65.51" class="st3">
     0 
   </text> 
  </g> 
  <g id="shape14-38" transform="translate(80.1701,-28.8465)"> 
   <title>64-bit register.88</title> 
   <desc>
     ISS 
   </desc> 
   <rect x="0" y="40.435" width="283.465" height="28.3465" class="st4" /> 
   <text x="135.29" y="57.01" class="st3">
     ISS 
   </text> 
  </g> 
  <g id="shape15-41" transform="translate(341.707,0.25) rotate(90)"> 
   <title>64-bit register.21</title> 
   <path d="M0 68.78 L11.34 68.78" class="st2" /> 
  </g> 
  <g id="shape16-44" transform="translate(85.8394,-17.5079)"> 
   <title>Sheet.16</title> 
   <path d="M0 60.28 L0 68.78 L5.67 68.78" class="st5" /> 
  </g> 
  <g id="shape17-47" transform="translate(94.3433,-0.5)"> 
   <title>Sheet.17</title> 
   <desc>
     IL 
   </desc> 
   <rect x="0" y="57.4429" width="22.6772" height="11.3386" class="st6" /> 
   <text x="0" y="65.51" class="st3">
     IL 
   </text> 
  </g> 
  <g id="shape18-50" transform="translate(0.8,-28.8465)"> 
   <title>64-bit register.26</title> 
   <desc>
     EC 
   </desc> 
   <rect x="0" y="40.435" width="68.0315" height="28.3465" class="st4" /> 
   <text x="28.46" y="57.01" class="st3">
     EC 
   </text> 
  </g> 
  <g id="shape19-53" transform="translate(68.8315,-57.1929)"> 
   <title>64-bit register.6</title> 
   <desc>
     25 
   </desc> 
   <text x="1.22" y="65.51" class="st3">
     25 
   </text> 
  </g> 
  <g id="shape20-55" transform="translate(80.1701,-57.1929)"> 
   <title>Sheet.20</title> 
   <desc>
     24 
   </desc> 
   <text x="1.22" y="65.51" class="st3">
     24 
   </text> 
  </g> 
  <g id="shape21-57" transform="translate(57.4929,-57.1929)"> 
   <title>64-bit register.8</title> 
   <desc>
     26 
   </desc> 
   <text x="1.22" y="65.51" class="st3">
     26 
   </text> 
  </g> 
  <g id="shape22-59" transform="translate(91.5087,-28.8465)"> 
   <title>64-bit register.7</title> 
   <path d="M0 40.44 L0 68.78" class="st1" /> 
  </g> 
  <g id="shape23-62" transform="translate(68.8315,-28.8465)"> 
   <title>64-bit register.9</title> 
   <path d="M0 40.44 L0 68.78" class="st1" /> 
  </g> 
  <g id="shape24-65" transform="translate(74.5008,-6.16929)"> 
   <title>Sheet.24</title> 
   <path d="M0 48.94 L0 68.78 L17.01 68.78" class="st5" /> 
  </g> 
  <g id="shape25-68" transform="translate(93.2803,-14.6732)"> 
   <title>Sheet.25</title> 
   <desc>
     ISS Valid 
   </desc> 
   <rect x="0" y="57.4429" width="40.748" height="11.3386" class="st6" /> 
   <text x="0" y="65.51" class="st3">
     ISS Valid 
   </text> 
  </g> 
  <g id="shape26-71" transform="translate(91.5087,-57.1929)"> 
   <title>Sheet.26</title> 
   <desc>
     23 
   </desc> 
   <text x="1.22" y="65.51" class="st3">
     23 
   </text> 
  </g> 
 </g> 
</svg>